# xmcd
#
# Track frame offsets: 
#        150
#        8085
#        17085
#        26077
#        35247
#        44727
#        57180
#        69705
#        82392
#        91347
#        100657
#        113612
#        122485
#        136732
#        149410
#        161872
#
# Disc length: 2334 seconds
#
# Revision: 2
# Processed by: cddbd v1.5.2PL0 Copyright (c) Steve Scherf et al.
# Submitted via: ExactAudioCopy v1.0b1
#
DISCID=df091c10
DTITLE=The '5' Royals - The '5' Royales Sing For You
DYEAR=1959
DGENRE=R&B
TTITLE0=Your Only Love (mono)
TTITLE1=The Real Thing (mono)
TTITLE2=Don't Let It Be In Vain (mono)
TTITLE3=Do The Cha Cha Cherry (mono)
TTITLE4=Double Or Nothing (mono)
TTITLE5=Mohawk Squaw (mono)
TTITLE6=When I Wonder (mono)
TTITLE7=I Need Your Lovin' Baby (mono)
TTITLE8=The Feeling Is Real (mono)
TTITLE9=Tell The Truth (mono)
TTITLE10=My Wants For Love (mono)
TTITLE11=The Slummer The Slum (mono)
TTITLE12=Do Unto You (mono)
TTITLE13=I Ain't Getting Caught (mono)
TTITLE14=When I Get Like This (mono)
TTITLE15=Monkey Hips And Rice (mono)
EXTD=
EXTT0=
EXTT1=
EXTT2=
EXTT3=
EXTT4=
EXTT5=
EXTT6=
EXTT7=
EXTT8=
EXTT9=
EXTT10=
EXTT11=
EXTT12=
EXTT13=
EXTT14=
EXTT15=
PLAYORDER=
